<?xml version="1.0" encoding="UTF-8"?><svg id="b" xmlns="http://www.w3.org/2000/svg" viewBox="0 0 61.18 64.59"><defs><style>.d{fill:#39b54a;}</style></defs><g id="c"><g><polygon class="d" points="2.12 37.22 11.31 28.03 24.49 41.21 47.98 2.06 59.12 8.75 27.07 62.17 2.12 37.22"/><path d="M48.49,4.12l8.58,5.14L26.77,59.75,4.24,37.22l7.07-7.07,13.47,13.47L48.49,4.12m-1.03-4.12l-1.54,2.57L24.19,38.79l-10.75-10.75-2.12-2.12-2.12,2.12-7.07,7.07-2.12,2.12,2.12,2.12,22.53,22.53,2.72,2.72,1.98-3.29L59.64,10.8l1.54-2.57-2.57-1.54L50.03,1.54l-2.57-1.54h0Z"/></g></g></svg>