<?xml version="1.0" encoding="UTF-8"?><svg id="b" xmlns="http://www.w3.org/2000/svg" viewBox="0 0 90.88 59.94"><defs><style>.d{fill:#fff;stroke:#000;stroke-miterlimit:10;}</style></defs><g id="c"><g><rect class="d" x=".5" y="14.25" width="18" height="18"/><rect class="d" x="18.38" y="14.21" width="18" height="18"/><rect class="d" x="36.38" y="14.21" width="18" height="18"/><rect class="d" x="36.38" y="32.21" width="18" height="13.62"/><rect class="d" x="36.38" y=".5" width="18" height="13.62"/><rect class="d" x="36.38" y="45.82" width="18" height="13.62"/><rect class="d" x="54.38" y="14.21" width="18" height="18"/><rect class="d" x="72.38" y="14.21" width="18" height="18"/><path d="M12.44,24.14h2.87c-.48,3.08-3.19,4.22-5.79,4.22-2.83,0-5.84-1.36-5.84-5.1s3.01-5.11,5.84-5.11c2.59,0,5.31,1.15,5.79,4.23h-2.87c-.31-1.34-1.16-2.26-2.91-2.26-2,0-3.01,1.23-3.01,3.14s1.01,3.12,3.01,3.12c1.75,0,2.61-.91,2.91-2.24Z"/><path d="M28.14,24.84h-3.12v3.19h-2.79v-9.81h6.43c2.72,0,4.19,1.3,4.19,3.31,0,1.51-.71,2.45-1.96,2.93l2.3,3.57h-3.05l-1.99-3.19Zm-3.12-1.98h3.56c1.27,0,1.44-.87,1.44-1.33s-.15-1.32-1.44-1.32h-3.56v2.65Z"/><path d="M51.5,23.21c0,3.74-3.28,5.1-6.11,5.1s-6.12-1.36-6.12-5.1,3.29-5.11,6.12-5.11,6.11,1.36,6.11,5.11Zm-2.83,0c0-1.93-1.2-3.14-3.28-3.14s-3.28,1.21-3.28,3.14,1.19,3.12,3.28,3.12,3.28-1.19,3.28-3.12Z"/><path d="M68.94,24.99c0,2.35-1.99,3.32-5.6,3.32-3.88,0-5.52-1.25-5.52-3.39h2.96c0,1.09,1.37,1.42,2.76,1.42,1.51,0,2.35-.31,2.35-.97,0-.81-1.22-.77-3.89-1.23-2.47-.42-3.94-.91-3.94-2.89s1.58-3.15,5.11-3.15c3.88,0,5.14,1.43,5.14,3.19h-2.86c0-.66-.78-1.22-2.31-1.22-1.67,0-2.31,.35-2.31,.97,0,.83,1.5,.88,3.17,1.09,2.48,.34,4.94,.39,4.94,2.86Z"/><path d="M86.94,24.99c0,2.35-1.99,3.32-5.6,3.32-3.88,0-5.52-1.25-5.52-3.39h2.96c0,1.09,1.37,1.42,2.76,1.42,1.51,0,2.35-.31,2.35-.97,0-.81-1.22-.77-3.89-1.23-2.47-.42-3.94-.91-3.94-2.89s1.58-3.15,5.11-3.15c3.88,0,5.14,1.43,5.14,3.19h-2.86c0-.66-.78-1.22-2.31-1.22-1.67,0-2.31,.35-2.31,.97,0,.83,1.5,.88,3.17,1.09,2.48,.34,4.94,.39,4.94,2.86Z"/><path d="M52.86,3.13l-2.86,8.78h-2.85l-1.68-5.87-1.67,5.87h-2.85l-2.87-8.78h2.62l1.86,6.46,1.84-6.46h2.14l1.84,6.46,1.84-6.46h2.62Z"/><path d="M45.86,40.46h-2.8v2.86h-2.5v-8.78h5.76c2.43,0,3.75,1.17,3.75,2.96,0,1.35-.64,2.19-1.76,2.62l2.06,3.2h-2.73l-1.78-2.86Zm-2.8-1.77h3.19c1.14,0,1.29-.78,1.29-1.19s-.14-1.18-1.29-1.18h-3.19v2.37Z"/><path d="M50.71,52.7c0,3.69-2.8,4.39-5.53,4.39h-4.23v-8.78h4.23c2.73,0,5.53,.69,5.53,4.39Zm-2.55,0c0-2.27-1.42-2.61-3.19-2.61h-1.52v5.22h1.52c1.77,0,3.19-.35,3.19-2.61Z"/></g></g></svg>