<?xml version="1.0" encoding="UTF-8"?><svg id="b" xmlns="http://www.w3.org/2000/svg" xmlns:xlink="http://www.w3.org/1999/xlink" viewBox="0 0 40.87 62.92"><defs><style>.g{fill:#fff;}.h{fill:url(#f);}.i{fill:#3444ad;}.j{fill:#4b63fc;}.k{fill:url(#e);}.l{fill:url(#d);}</style><linearGradient id="d" x1="19.21" y1="60.59" x2="19.21" y2="26.34" gradientTransform="translate(6.32 -3.28) rotate(11.33)" gradientUnits="userSpaceOnUse"><stop offset="0" stop-color="#4b63fc"/><stop offset="1" stop-color="#3444ad"/></linearGradient><linearGradient id="e" x1="-34.53" y1="13.29" x2="-34.53" y2="-15.19" gradientTransform="translate(44.84 49.56) rotate(19.69)" xlink:href="#d"/><linearGradient id="f" x1="83.12" y1="117.76" x2="83.12" y2="89.29" gradientTransform="translate(-60.76 -61.68) rotate(-.89)" xlink:href="#d"/></defs><g id="c"><g><polygon class="l" points="14.24 55 2.99 57.84 14.74 25.27 25.23 27.37 23.52 61.96 14.24 55"/><path d="M15.06,25.84l9.65,1.93-1.64,33.22-8.72-6.54-10.57,2.67L15.06,25.84m-.65-1.15l-.29,.81L2.84,56.79l-.64,1.77,1.82-.46,10.11-2.56,8.34,6.25,1.51,1.13,.09-1.88,1.64-33.22,.04-.86-.84-.17-9.65-1.93-.84-.17h0Z"/></g><g><polygon class="k" points="9.27 46.46 .9 47.94 13.84 22.33 21.04 24.91 14.8 52.91 9.27 46.46"/><path d="M14.09,22.95l6.37,2.28-5.93,26.6-5.06-5.92-7.67,1.36L14.09,22.95m-.49-1.24l-.4,.79L.9,46.82l-.9,1.78,1.97-.35,7.1-1.26,4.69,5.48,1.3,1.52,.44-1.95,5.93-26.6,.19-.86-.83-.3-6.37-2.28-.83-.3h0Z"/></g><g><polygon class="h" points="19.92 26.37 27.56 26.25 31.56 54.67 24.11 50.56 16.8 54.9 19.92 26.37"/><path d="M27.12,26.76l3.8,26.99-6.82-3.76-6.7,3.97,2.96-27.09,6.76-.1m.87-1.01h-.88s-6.76,.12-6.76,.12h-.88s-.1,.89-.1,.89l-2.96,27.09-.22,1.99,1.72-1.02,6.21-3.68,6.32,3.48,1.75,.97-.28-1.98-3.8-26.99-.12-.87h0Z"/></g><g><path class="i" d="M23.05,37.28c-.8,0-1.44-.53-1.6-1.32-.07-.38-.38-.51-.63-.51-.11,0-.46,.03-.6,.43-.23,.69-.82,1.11-1.53,1.11-.47,0-.92-.19-1.23-.52-.3-.32-.45-.76-.42-1.22,.01-.19-.04-.35-.16-.47-.12-.13-.31-.21-.49-.21-.15,0-.36,.05-.51,.28-.31,.47-.8,.73-1.34,.73s-1.06-.27-1.37-.71c-.3-.43-.37-.95-.2-1.47,.09-.26,0-.45-.07-.56-.12-.17-.33-.28-.54-.28-.15,0-.29,.05-.41,.16-.31,.27-.68,.42-1.07,.42-.6,0-1.18-.35-1.47-.9-.28-.53-.24-1.15,.1-1.66,.19-.28,.1-.52,.04-.64-.11-.21-.33-.35-.56-.35-.1,0-.19,.02-.29,.07-.24,.12-.49,.18-.74,.18-.67,0-1.28-.44-1.52-1.09-.24-.64-.06-1.33,.47-1.79,.3-.26,.23-.57,.18-.69-.07-.19-.27-.42-.58-.42-.05,0-.09,0-.14,.01-.12,.02-.24,.04-.35,.04-.75,0-1.39-.53-1.57-1.28-.17-.75,.18-1.49,.88-1.83,.32-.16,.39-.46,.34-.69-.05-.23-.22-.49-.58-.51-.84-.05-1.47-.68-1.53-1.53-.05-.84,.49-1.55,1.32-1.71,.35-.07,.5-.34,.51-.58,.02-.24-.09-.53-.43-.64-.91-.31-1.2-1.13-1.09-1.81,.13-.81,.79-1.37,1.6-1.37,0,0,.13,0,.13,0,.39,0,.58-.23,.65-.45,.03-.1,.11-.47-.26-.71-.61-.41-.87-1.12-.66-1.82,.21-.71,.83-1.18,1.54-1.18,.19,0,.37,.03,.56,.1,.08,.03,.15,.04,.22,.04,.24,0,.46-.15,.57-.39,.05-.11,.14-.39-.11-.67-.44-.5-.54-1.15-.27-1.73,.27-.6,.86-.99,1.5-.99,.32,0,.64,.1,.92,.29,.11,.08,.23,.11,.35,.11,.21,0,.43-.12,.55-.32,.08-.13,.15-.34,.02-.6-.26-.52-.24-1.09,.06-1.57,.31-.49,.85-.8,1.42-.8,.46,0,.89,.2,1.21,.57,.16,.18,.34,.22,.46,.22,.19,0,.39-.09,.52-.25,.08-.1,.17-.27,.12-.52-.1-.5,.01-.98,.32-1.35,.31-.38,.8-.61,1.31-.61,.62,0,1.16,.34,1.44,.92,.15,.31,.42,.36,.56,.36,.29,0,.62-.19,.64-.59,.06-1,.87-1.53,1.64-1.53,.8,0,1.44,.53,1.6,1.32,.07,.38,.38,.51,.63,.51,.11,0,.46-.03,.6-.43,.23-.69,.82-1.11,1.53-1.11,.47,0,.92,.19,1.23,.52,.3,.32,.45,.76,.42,1.22-.01,.19,.04,.35,.16,.47,.12,.13,.31,.21,.49,.21,.15,0,.36-.05,.51-.28,.31-.47,.8-.73,1.34-.73s1.06,.27,1.37,.71c.3,.43,.37,.95,.2,1.47-.09,.26,0,.45,.07,.56,.12,.17,.33,.28,.54,.28,.15,0,.29-.05,.41-.16,.31-.27,.68-.42,1.07-.42,.6,0,1.18,.35,1.47,.9,.28,.53,.24,1.15-.1,1.66-.19,.28-.11,.52-.04,.64,.11,.21,.33,.35,.56,.35,.1,0,.19-.02,.29-.07,.24-.12,.49-.18,.74-.18,.67,0,1.28,.44,1.52,1.09,.24,.64,.06,1.33-.47,1.79-.3,.26-.23,.57-.18,.69,.07,.19,.27,.42,.58,.42,.05,0,.09,0,.14-.01,.12-.02,.24-.04,.35-.04,.75,0,1.39,.53,1.57,1.28,.17,.75-.18,1.49-.88,1.83-.32,.16-.39,.46-.34,.69,.05,.23,.22,.49,.58,.51,.84,.05,1.47,.68,1.52,1.53,.05,.84-.49,1.55-1.32,1.71-.35,.07-.5,.34-.51,.58-.02,.24,.09,.53,.43,.64,.91,.31,1.2,1.13,1.09,1.81-.13,.81-.79,1.37-1.6,1.37,0,0-.13,0-.13,0-.39,0-.58,.23-.65,.45-.03,.1-.11,.47,.26,.71,.61,.41,.87,1.12,.66,1.82-.21,.71-.83,1.18-1.54,1.18-.19,0-.37-.03-.56-.1-.08-.03-.15-.04-.22-.04-.24,0-.46,.15-.57,.39-.05,.11-.14,.39,.11,.67,.44,.5,.54,1.15,.27,1.73-.27,.6-.86,.99-1.5,.99-.32,0-.64-.1-.92-.29-.11-.08-.23-.11-.35-.11-.21,0-.43,.12-.55,.32-.08,.13-.15,.34-.02,.6,.26,.52,.24,1.09-.06,1.57-.31,.49-.85,.8-1.42,.8-.46,0-.89-.2-1.21-.57-.16-.18-.34-.22-.46-.22-.19,0-.39,.09-.52,.25-.08,.1-.17,.27-.12,.52,.1,.5-.01,.98-.32,1.35-.31,.38-.8,.61-1.31,.61-.62,0-1.16-.34-1.44-.92-.15-.31-.42-.36-.56-.36-.29,0-.62,.19-.64,.59-.06,1-.87,1.53-1.64,1.53Z"/><path d="M20.91,1c.49,0,.99,.3,1.11,.92h0c.12,.6,.62,.92,1.12,.92,.45,0,.89-.25,1.07-.77h0c.18-.53,.62-.77,1.06-.77,.6,0,1.2,.45,1.15,1.21h0c-.05,.74,.54,1.21,1.15,1.21,.35,0,.69-.16,.93-.51h0c.24-.36,.58-.51,.92-.51,.7,0,1.39,.66,1.1,1.51h0c-.28,.81,.37,1.51,1.08,1.51,.25,0,.51-.09,.74-.29h0c.23-.21,.49-.29,.74-.29,.81,0,1.52,.94,.95,1.78h0c-.54,.8,.1,1.77,.93,1.77,.17,0,.34-.04,.51-.12h0c.18-.09,.35-.13,.52-.13,.94,0,1.58,1.26,.73,2h0c-.81,.71-.27,1.99,.73,1.99,.08,0,.16,0,.24-.02h0c.09-.02,.17-.03,.25-.03,1.13,0,1.58,1.61,.47,2.16-1.04,.51-.74,2.08,.42,2.15,1.33,.09,1.45,1.99,.14,2.24-1.14,.22-1.25,1.81-.15,2.19h0c1.23,.42,.9,2.21-.35,2.21-.03,0-.06,0-.09,0-.03,0-.06,0-.09,0-1.1,0-1.56,1.45-.62,2.08h0c.98,.66,.42,2.08-.6,2.08-.13,0-.26-.02-.4-.07-.13-.05-.26-.07-.38-.07-.9,0-1.51,1.12-.84,1.89,.71,.81,.02,1.89-.85,1.89-.21,0-.43-.06-.64-.21h0c-.21-.14-.42-.2-.63-.2-.77,0-1.42,.82-1.02,1.64h0c.42,.86-.28,1.65-1.03,1.65-.29,0-.59-.12-.84-.4h0c-.24-.27-.54-.39-.84-.39-.66,0-1.28,.58-1.13,1.36h0c.16,.82-.48,1.36-1.14,1.36-.39,0-.78-.19-1-.64h0c-.21-.44-.61-.64-1.01-.64-.55,0-1.1,.39-1.14,1.06h0c-.05,.7-.59,1.06-1.14,1.06-.49,0-.99-.3-1.11-.92h0c-.12-.6-.62-.92-1.12-.92-.45,0-.89,.25-1.07,.77h0c-.18,.53-.62,.77-1.06,.77-.6,0-1.2-.45-1.15-1.21h0c.05-.74-.54-1.21-1.15-1.21-.35,0-.69,.16-.93,.51h0c-.24,.36-.58,.51-.92,.51-.7,0-1.39-.66-1.1-1.51h0c.28-.81-.37-1.51-1.08-1.51-.25,0-.51,.09-.74,.29h0c-.23,.21-.49,.29-.74,.29-.81,0-1.52-.94-.95-1.78h0c.54-.8-.1-1.77-.93-1.77-.17,0-.34,.04-.51,.12h0c-.18,.09-.35,.13-.52,.13-.94,0-1.58-1.26-.73-2h0c.81-.71,.27-1.99-.73-1.99-.08,0-.16,0-.24,.02-.09,.02-.17,.03-.25,.03-1.13,0-1.58-1.61-.47-2.16h0c1.04-.51,.74-2.08-.42-2.15-1.33-.09-1.45-1.99-.14-2.24h0c1.14-.22,1.25-1.81,.15-2.19h0c-1.23-.42-.9-2.21,.35-2.21,.03,0,.06,0,.09,0h0s.06,0,.09,0c1.1,0,1.56-1.45,.62-2.08h0c-.98-.66-.42-2.08,.6-2.08,.13,0,.26,.02,.4,.07h0c.13,.05,.26,.07,.38,.07,.9,0,1.51-1.12,.84-1.89h0c-.71-.81-.02-1.89,.85-1.89,.21,0,.43,.06,.64,.21h0c.21,.14,.42,.2,.63,.2,.77,0,1.42-.82,1.02-1.64h0c-.42-.86,.28-1.65,1.03-1.65,.29,0,.59,.12,.84,.4h0c.24,.27,.54,.39,.84,.39,.66,0,1.28-.58,1.13-1.36h0c-.16-.82,.48-1.36,1.14-1.36,.39,0,.78,.19,1,.64h0c.21,.44,.61,.64,1.01,.64,.55,0,1.1-.39,1.14-1.06h0c.05-.7,.59-1.06,1.14-1.06m0-1c-1.16,0-2.06,.84-2.14,2,0,.03,0,.13-.14,.13-.05,0-.08-.02-.11-.08-.37-.75-1.08-1.2-1.89-1.2-.65,0-1.29,.3-1.69,.79-.4,.49-.55,1.12-.42,1.76,.01,.07,0,.09-.02,.1-.03,.04-.08,.06-.13,.06-.02,0-.04,0-.09-.05-.42-.48-.98-.74-1.59-.74-.74,0-1.45,.4-1.85,1.03-.39,.63-.42,1.37-.08,2.05,.03,.06,.02,.09,0,.12-.03,.05-.08,.08-.12,.08-.02,0-.05,0-.07-.03-.37-.25-.78-.38-1.2-.38-.83,0-1.6,.5-1.95,1.28-.34,.76-.21,1.63,.35,2.27,.04,.04,.05,.08,.03,.14-.02,.04-.06,.09-.11,.09-.02,0-.04,0-.06-.01-.24-.08-.48-.12-.72-.12-.93,0-1.74,.62-2.02,1.54-.28,.91,.06,1.85,.86,2.38,.03,.02,.08,.06,.05,.15-.03,.1-.09,.1-.12,.1-.07,0-.13,0-.18,0-1.06,0-1.92,.74-2.09,1.79-.17,1.05,.41,2.02,1.42,2.36,.04,.01,.1,.03,.09,.14,0,.1-.07,.11-.11,.12-1.08,.21-1.79,1.13-1.72,2.23s.89,1.92,1.99,1.99c.04,0,.1,0,.12,.11,.02,.1-.04,.13-.07,.15-.91,.45-1.37,1.41-1.14,2.39,.23,.98,1.07,1.67,2.05,1.67,.15,0,.3-.02,.45-.04,0,0,0,0,.01,0,.1,0,.14,.07,.14,.09,.03,.08,0,.11-.04,.14-.69,.6-.92,1.5-.61,2.34,.32,.85,1.12,1.41,1.99,1.41,.33,0,.65-.08,.96-.23,.02,0,.05-.02,.07-.02,.04,0,.09,.04,.12,.09,.02,.05,.02,.08-.01,.13-.45,.67-.5,1.48-.13,2.18,.38,.71,1.12,1.16,1.91,1.16,.51,0,1-.19,1.4-.54,.05-.04,.07-.04,.08-.04,.04,0,.1,.03,.13,.07,.02,.02,.03,.05,0,.11-.23,.67-.13,1.37,.26,1.92,.4,.56,1.09,.92,1.78,.92s1.35-.35,1.75-.96c.04-.06,.07-.06,.1-.06,.05,0,.1,.02,.12,.05,0,.01,.03,.03,.02,.09-.04,.61,.15,1.17,.55,1.6,.41,.43,.99,.68,1.6,.68,.92,0,1.71-.57,2-1.45,.01-.04,.03-.09,.12-.09,.11,0,.13,.07,.14,.11,.2,1.03,1.04,1.73,2.09,1.73,1.16,0,2.06-.84,2.14-2,0-.08,.05-.13,.14-.13,.05,0,.08,.02,.11,.08,.37,.75,1.08,1.2,1.89,1.2,.65,0,1.29-.3,1.69-.79,.4-.49,.55-1.12,.42-1.76-.01-.07,0-.09,.02-.1,.03-.04,.08-.06,.13-.06,.02,0,.04,0,.09,.05,.42,.48,.98,.74,1.59,.74,.74,0,1.45-.4,1.85-1.03,.39-.63,.42-1.37,.08-2.05-.03-.06-.02-.09,0-.12,.03-.05,.08-.08,.12-.08,.02,0,.05,0,.07,.03,.37,.25,.78,.38,1.2,.38,.83,0,1.6-.5,1.95-1.28,.34-.76,.21-1.63-.35-2.27-.04-.04-.05-.08-.03-.14,.02-.04,.06-.09,.11-.09,.02,0,.04,0,.06,.01,.24,.08,.48,.12,.72,.12,.93,0,1.74-.62,2.02-1.54,.28-.91-.06-1.85-.86-2.38-.03-.02-.08-.06-.05-.15,.03-.1,.09-.1,.12-.1,.07,0,.13,0,.18,0,1.06,0,1.92-.74,2.09-1.79,.17-1.05-.41-2.02-1.42-2.36-.04-.01-.1-.03-.09-.14,0-.1,.07-.11,.11-.12,1.08-.21,1.79-1.13,1.72-2.23s-.89-1.92-1.99-1.99c-.04,0-.1,0-.12-.11-.02-.1,.04-.13,.07-.15,.91-.45,1.37-1.41,1.14-2.39-.23-.98-1.07-1.67-2.05-1.67-.15,0-.3,.02-.45,.04,0,0,0,0-.01,0-.1,0-.14-.07-.14-.09-.03-.08,0-.11,.04-.14,.69-.6,.92-1.5,.61-2.34-.32-.85-1.12-1.41-1.99-1.41-.33,0-.65,.08-.96,.23-.02,0-.05,.02-.07,.02-.04,0-.09-.04-.12-.09-.02-.05-.02-.08,.01-.13,.45-.67,.5-1.48,.13-2.18-.38-.71-1.12-1.16-1.91-1.16-.51,0-1,.19-1.4,.54-.05,.04-.07,.04-.08,.04-.04,0-.1-.03-.13-.07-.02-.02-.03-.05,0-.11,.23-.67,.13-1.37-.26-1.92-.4-.56-1.09-.92-1.78-.92s-1.35,.35-1.75,.96c-.04,.06-.07,.06-.1,.06-.05,0-.1-.02-.12-.05,0-.01-.03-.03-.02-.09,.04-.61-.15-1.17-.55-1.6-.41-.43-.99-.68-1.6-.68-.92,0-1.71,.57-2,1.45-.01,.04-.03,.09-.12,.09-.11,0-.13-.07-.14-.11-.2-1.03-1.04-1.73-2.09-1.73h0Z"/></g><g><path class="j" d="M21.99,33.61c-.97,0-1.95-.1-2.91-.29-7.96-1.59-13.13-9.36-11.54-17.32,1.37-6.85,7.44-11.83,14.41-11.83,.97,0,1.95,.1,2.91,.29,7.96,1.59,13.13,9.36,11.54,17.32-1.37,6.85-7.43,11.83-14.41,11.83Z"/><path d="M21.96,4.67c.93,0,1.87,.09,2.81,.28,7.7,1.54,12.69,9.03,11.15,16.73-1.35,6.76-7.29,11.43-13.92,11.43-.93,0-1.87-.09-2.81-.28-7.7-1.54-12.69-9.03-11.15-16.73,1.35-6.76,7.29-11.43,13.92-11.43m0-1h0c-7.22,0-13.48,5.14-14.9,12.23-1.65,8.23,3.7,16.26,11.93,17.91,.99,.2,2,.3,3,.3,7.22,0,13.48-5.14,14.9-12.23,.8-3.99,0-8.04-2.26-11.42-2.25-3.38-5.69-5.68-9.67-6.48-.99-.2-2-.3-3-.3h0Z"/></g><g><polygon class="g" points="21.78 24.35 23.38 16.39 20.24 17.56 20.89 14.34 25.28 12.69 27.95 13.23 25.57 25.11 21.78 24.35"/><path d="M25.32,13.21l2.04,.41-2.18,10.9-2.8-.56,1.67-8.35-3.13,1.17,.42-2.07,3.99-1.5m-.08-1.04l-.27,.1-3.99,1.5-.52,.2-.11,.54-.42,2.07-.35,1.76,1.68-.63,1.45-.54-1.32,6.59-.2,.98,.98,.2,2.8,.56,.98,.2,.2-.98,2.18-10.9,.2-.98-.98-.2-2.04-.41-.28-.06h0Z"/></g><g><path class="g" d="M15.05,18.23l.53-1.12-.22-.04-.53,1.12-1.66-.33,.53-1.12-.69-.14,.29-1.47,1.05,.21,.11-.23-.75-.15,.29-1.47,1.12,.22,.53-1.12,1.65,.33-.53,1.12,.22,.04,.53-1.12,1.64,.33-.53,1.12,.62,.12-.29,1.47-.98-.2-.11,.23,.69,.14-.29,1.47-1.06-.21-.53,1.12-1.65-.33Zm1.19-2.52l.11-.23-.22-.04-.11,.23,.22,.04Z"/><path d="M15.88,13.02l.9,.18-.53,1.12,.98,.2,.53-1.12,.89,.18-.53,1.12,.72,.14-.15,.73-.9-.18-.44,.93,.79,.16-.15,.73-.97-.2-.53,1.12-.89-.18,.53-1.12-.98-.2-.53,1.12-.9-.18,.53-1.12-.79-.16,.15-.73,.97,.2,.44-.93-.85-.17,.15-.73,1.04,.21,.53-1.12m.57,3.12l.44-.93-.98-.2-.44,.93,.97,.2m-1-3.97l-.25,.53-.28,.59-.46-.09-.74-.15-.15,.74-.15,.73-.05,.25-.36-.07-.15,.74-.15,.73-.15,.74,.58,.12-.12,.25-.41,.87,.94,.19,.9,.18,.32,.06,.66,.13,.89,.18,.57,.11,.25-.53,.28-.59,.4,.08,.74,.15,.15-.74,.15-.73,.05-.25,.36,.07,.15-.74,.15-.73,.15-.74-.52-.1,.12-.25,.41-.87-.94-.19-.89-.18h-.04s-.94-.2-.94-.2l-.9-.18-.57-.11h0Z"/></g></g></svg>