<?xml version="1.0" encoding="UTF-8"?><svg id="b" xmlns="http://www.w3.org/2000/svg" viewBox="0 0 51.56 51.56"><defs><style>.d{fill:red;}</style></defs><g id="c"><g><polygon class="d" points="25.78 34.97 11.31 49.44 2.12 40.24 16.59 25.78 2.12 11.31 11.31 2.12 25.78 16.59 40.24 2.12 49.44 11.31 34.97 25.78 49.44 40.24 40.24 49.44 25.78 34.97"/><path d="M40.24,4.24l7.07,7.07-14.46,14.46,14.46,14.46-7.07,7.07-14.46-14.46-14.46,14.46-7.07-7.07,14.46-14.46L4.24,11.31l7.07-7.07,14.46,14.46,14.46-14.46m0-4.24l-2.12,2.12-12.34,12.34L13.44,2.12,11.31,0l-2.12,2.12L2.12,9.19,0,11.31l2.12,2.12,12.34,12.34L2.12,38.12l-2.12,2.12,2.12,2.12,7.07,7.07,2.12,2.12,2.12-2.12,12.34-12.34,12.34,12.34,2.12,2.12,2.12-2.12,7.07-7.07,2.12-2.12-2.12-2.12-12.34-12.34,12.34-12.34,2.12-2.12-2.12-2.12-7.07-7.07-2.12-2.12h0Z"/></g></g></svg>